<svg xmlns="http://www.w3.org/2000/svg" xmlns:xlink="http://www.w3.org/1999/xlink" width="500" zoomAndPan="magnify" viewBox="0 0 375 374.999991" height="500" preserveAspectRatio="xMidYMid meet" version="1.0"><defs><clipPath id="1534fddbfa"><path d="M 187.5 0 C 83.945312 0 0 83.945312 0 187.5 C 0 291.054688 83.945312 375 187.5 375 C 291.054688 375 375 291.054688 375 187.5 C 375 83.945312 291.054688 0 187.5 0 Z M 187.5 0 " clip-rule="nonzero"/></clipPath><clipPath id="9b321fc331"><path d="M 117 224 L 255 224 L 255 357.75 L 117 357.75 Z M 117 224 " clip-rule="nonzero"/></clipPath></defs><g clip-path="url(#1534fddbfa)"><rect x="-37.5" width="450" fill="#000000" y="-37.499999" height="449.999989" fill-opacity="1"/></g><path fill="#ffffff" d="M 111.027344 96.699219 C 113.363281 96.472656 116.222656 96.546875 117.277344 98.582031 C 120.972656 76.457031 125.414062 54.480469 130.539062 32.660156 C 131.820312 27.390625 133.101562 22.046875 135.8125 17.308594 C 138.523438 12.640625 142.820312 8.578125 148.09375 7.375 C 150.804688 6.773438 153.59375 6.996094 156.304688 6.695312 C 160.296875 6.320312 164.0625 5.042969 167.90625 3.914062 C 175.441406 1.804688 183.125 0.449219 190.960938 0 C 184.707031 3.308594 178.679688 6.996094 172.726562 10.835938 C 169.035156 13.242188 165.117188 16.101562 163.613281 20.242188 C 160.75 28.292969 167.980469 37.398438 165.042969 45.453125 C 164.0625 48.160156 162.03125 50.492188 161.578125 53.277344 C 160.75 58.621094 165.722656 62.984375 170.542969 65.46875 C 175.367188 67.953125 181.015625 70.132812 183.277344 75.027344 C 185.6875 80.367188 183.125 86.691406 184.253906 92.410156 C 203.316406 97.453125 223.429688 98.277344 242.867188 94.816406 C 238.347656 95.496094 233.902344 96.699219 229.683594 98.503906 C 223.65625 101.140625 218.082031 104.824219 212.207031 107.835938 C 192.015625 118.070312 168.585938 119.273438 145.984375 120.175781 C 128.128906 120.929688 110.121094 121.683594 92.417969 118.746094 C 86.84375 117.84375 63.261719 115.664062 60.023438 110.46875 C 56.40625 104.75 73.582031 100.761719 77.878906 99.933594 C 88.652344 97.902344 100.175781 97.753906 111.027344 96.699219 Z M 111.027344 96.699219 " fill-opacity="1" fill-rule="nonzero"/><path fill="#ffffff" d="M 236.765625 91.28125 C 244.222656 84.054688 256.582031 82.703125 266.449219 81.722656 C 274.738281 80.972656 282.421875 79.691406 290.707031 79.242188 C 294.476562 79.089844 298.316406 77.886719 302.007812 76.984375 C 305.097656 76.230469 310.222656 75.101562 313.460938 75.929688 C 317.078125 76.832031 318.808594 80.59375 316.851562 84.132812 C 314.140625 89.097656 307.058594 90.453125 302.234375 92.484375 C 296.132812 95.117188 289.351562 96.472656 282.875 97.601562 C 278.050781 98.429688 270.441406 100.460938 266.523438 103.246094 C 270.820312 100.535156 274.511719 97.675781 279.257812 95.71875 C 281.820312 94.667969 286.261719 91.582031 283.625 88.195312 C 281.214844 85.183594 273.003906 86.691406 269.765625 86.839844 C 263.4375 87.066406 257.183594 87.820312 250.855469 88.347656 C 245.203125 88.871094 239.253906 89.472656 236.765625 91.28125 Z M 236.765625 91.28125 " fill-opacity="1" fill-rule="nonzero"/><path fill="#ffffff" d="M 116.449219 133.574219 C 116.449219 133.574219 118.257812 148.019531 121.949219 151.484375 C 121.949219 151.484375 120.140625 144.03125 122.554688 141.851562 C 122.554688 141.851562 142.742188 150.128906 153.816406 148.171875 C 164.894531 146.289062 173.105469 127.027344 178.679688 130.9375 C 184.253906 134.851562 171.597656 166.609375 170.316406 170.296875 C 169.1875 173.757812 186.363281 170.21875 197.363281 185.195312 C 197.890625 185.949219 197.0625 186.925781 196.234375 186.550781 C 190.960938 184.140625 179.960938 180.378906 172.277344 186.550781 C 172.277344 186.550781 164.589844 178.195312 151.558594 189.410156 C 151.03125 189.859375 151.332031 190.839844 152.085938 190.839844 C 158.640625 190.765625 180.113281 189.410156 196.382812 191.59375 C 197.515625 191.742188 197.742188 193.246094 196.761719 193.773438 C 192.015625 196.257812 180.863281 200.320312 161.578125 197.535156 C 160.523438 197.386719 160.070312 198.890625 161.050781 199.269531 C 167.832031 202.128906 179.886719 205.738281 193.070312 202.730469 C 193.070312 202.730469 213.488281 200.847656 218.007812 208.222656 C 222.453125 215.597656 219.816406 226.132812 219.816406 226.132812 C 219.816406 226.132812 190.960938 241.558594 177.398438 235.691406 C 177.398438 235.691406 168.507812 240.054688 160.976562 235.914062 C 151.40625 230.722656 138.375 218.15625 138.375 218.15625 L 127.148438 168.789062 C 127.148438 168.789062 120.367188 170.597656 118.558594 161.71875 C 115.921875 148.847656 116.449219 133.574219 116.449219 133.574219 Z M 116.449219 133.574219 " fill-opacity="1" fill-rule="nonzero"/><g clip-path="url(#9b321fc331)"><path fill="#ffffff" d="M 117.882812 250.214844 L 180.488281 340.515625 L 254.320312 357.75 L 126.996094 224.476562 C 126.996094 224.402344 117.429688 240.957031 117.882812 250.214844 Z M 117.882812 250.214844 " fill-opacity="1" fill-rule="nonzero"/></g></svg>